<svg id="katman_2" xmlns="http://www.w3.org/2000/svg" viewBox="0 0 966.1 242.65"><defs><style>
      .cls-1 {
        fill: #fff;
      }
      .cls-2 {
        fill: #f39104;
      }
    </style></defs><g id="Protam_Group"><g><g><path class="cls-1" d="M111.88,175.4v-98.45c0-1.3-.14-3.71-.42-7.25-.28-3.53-1.17-7.17-2.65-10.93-1.48-3.75-3.74-7.1-6.78-10.06-3.04-2.95-7.31-4.43-12.82-4.43s-10.53,1.01-15.04,3.03c-4.52,2.02-8.44,5.08-11.76,9.2-3.32,4.11-5.9,9.34-7.73,15.69-1.84,6.35-2.75,13.78-2.75,22.29v80.93H0V57.47c0-7.07,1.52-13.96,4.56-20.66,3.04-6.71,7.06-12.66,12.08-17.85,5.01-5.19,10.81-9.38,17.37-12.55,6.57-3.17,13.46-4.76,20.66-4.76h55.3c8.19,0,15.68,1.59,22.46,4.76,6.78,3.17,12.53,7.36,17.27,12.55,4.73,5.19,8.4,11.14,11.02,17.85,2.61,6.71,3.92,13.6,3.92,20.66v117.93h-52.76Z"></path><path class="cls-1" d="M355.97,91.01c0,26.69-7.98,48.04-23.94,64.05-15.68,16.01-36.66,24.02-62.93,24.02s-47.32-8.01-63.14-24.02c-15.96-16.01-23.94-37.36-23.94-64.05s7.98-48.25,23.94-64.26c8.05-8.22,17.3-14.46,27.76-18.72,10.45-4.25,22.25-6.38,35.39-6.38s24.9,2.13,35.28,6.38c10.38,4.26,19.6,10.49,27.65,18.72,15.96,16.01,23.94,37.43,23.94,64.26ZM306.18,91.01c0-15.72-3.18-27.91-9.54-36.57-6.5-8.8-15.68-13.2-27.55-13.2s-21.12,4.4-27.76,13.2c-6.36,8.65-9.53,20.85-9.53,36.57s3.25,27.34,9.75,36.13c6.64,8.95,15.82,13.42,27.55,13.42s20.98-4.47,27.33-13.42c6.5-8.8,9.75-20.84,9.75-36.13Z"></path><path class="cls-1" d="M482.89,52.28c-10.03-2.88-18.83-3.64-26.38-2.27-7.56,1.37-13.88,4.44-18.96,9.2-5.09,4.76-8.94,11-11.55,18.72-2.61,7.72-3.92,16.55-3.92,26.51v70.97h-51.91v-103.21c0-7.21,1.52-14.64,4.56-22.29,3.04-7.64,7.1-14.75,12.18-21.31,5.09-6.56,10.95-12.12,17.59-16.66,6.64-4.54,13.56-7.25,20.77-8.11,8.76-.86,17.02-1.51,24.79-1.95,3.39-.14,6.78-.25,10.17-.32,3.39-.07,6.68,0,9.85.22,3.18.22,6.11.54,8.79.97,2.68.43,4.87,1.01,6.57,1.73l-2.54,47.82Z"></path><path class="cls-1" d="M743.94,6.19c6.78,3.17,12.57,7.36,17.38,12.55,4.8,5.19,8.51,11.14,11.12,17.85,2.61,6.71,3.92,13.67,3.92,20.88v117.71h-52.76v-98.45c0-1.3-.18-3.71-.53-7.25-.35-3.53-1.27-7.17-2.75-10.93-1.48-3.75-3.74-7.1-6.78-10.06-3.04-2.95-7.31-4.43-12.82-4.43-10.88,0-19.67,4.11-26.38,12.33-6.71,8.22-10.06,20.85-10.06,37.87v80.92h-52.97.21v-98.45c0-1.3-.18-3.71-.53-7.25-.35-3.53-1.27-7.17-2.74-10.93-1.48-3.75-3.73-7.1-6.75-10.06-3.03-2.95-7.29-4.43-12.78-4.43s-10.49,1.01-14.99,3.03c-4.5,2.02-8.41,5.09-11.72,9.2-3.31,4.11-5.88,9.34-7.71,15.69-1.83,6.35-2.74,13.78-2.74,22.29v80.92h-52.34V57.47c0-7.21,1.52-14.17,4.56-20.88,3.04-6.71,7.1-12.66,12.18-17.85,5.09-5.19,10.91-9.38,17.48-12.55,6.57-3.17,13.45-4.76,20.66-4.76h44.5c6.5,0,12.32.83,17.48,2.49,5.15,1.66,9.67,3.68,13.56,6.06,3.88,2.38,7.17,5.01,9.85,7.9,2.68,2.89,4.8,5.48,6.36,7.79,2.12-3.03,4.94-6.02,8.48-8.98,3.53-2.95,7.42-5.55,11.65-7.79,4.24-2.23,8.58-4.04,13.03-5.41,4.45-1.37,8.51-2.06,12.18-2.06h30.3c8.19,0,15.68,1.59,22.46,4.76Z"></path></g><g><path class="cls-2" d="M527.49,241.52v-7.75c-.79,1.03-1.58,1.99-2.37,2.86-.67.76-1.39,1.5-2.17,2.23-.77.73-1.49,1.28-2.17,1.64-2.61,1.43-5.48,2.14-8.6,2.14-5.38,0-9.59-1.32-12.64-3.97-3.05-2.6-4.57-6-4.57-10.19,0-5.09,2.02-9,6.05-11.73,2.02-1.34,4.48-2.38,7.39-3.11,2.91-.73,6.28-1.07,10.12-1.04l7.24.12c-.16-1.14-.49-2.25-1.01-3.32-.32-.59-.74-1.19-1.28-1.78-.53-.59-1.2-1.16-1.99-1.72-.12-.08-.24-.16-.36-.24-.12-.08-.24-.16-.36-.24-.16-.08-.32-.17-.48-.27-.16-.1-.34-.19-.53-.27-.28-.08-.55-.16-.83-.24-.28-.08-.59-.16-.95-.24h-.36c-.28-.04-.55-.07-.83-.09s-.61-.03-1.01-.03c-1.34,0-2.68.11-4,.33s-2.68.54-4.06.98c-1.38.43-2.69.94-3.92,1.51-1.23.57-2.33,1.23-3.32,1.98v-11.19c1.98-1.06,4.61-1.93,7.89-2.6,1.7-.35,3.38-.63,5.04-.83,1.66-.2,3.32-.3,4.98-.3h6.88c2.29,0,4.38.43,6.26,1.27,1.88.85,3.49,1.98,4.84,3.41,1.34,1.42,2.37,3.05,3.09,4.89s1.07,3.72,1.07,5.66v7.99h-.06l.06,24.11h-13.05ZM526.84,220.38c-.47.2-1.25.3-2.31.3-.55,0-1.18,0-1.87.03-.69.02-1.45.03-2.28.03-4,.12-6.9.69-8.72,1.71-1.9,1.14-2.85,2.75-2.85,4.83,0,1.61.63,2.89,1.9,3.83,1.23.94,3.03,1.41,5.4,1.41,3.2,0,5.79-1.18,7.77-3.54,1.98-2.32,2.97-4.81,2.97-7.48v-1.12Z"></path><path class="cls-2" d="M559.52,195.09l.12,26.89c0,.35.04,1.02.12,1.98.08.97.33,1.97.74,3.02s1.05,1.97,1.9,2.78c.85.81,2.05,1.21,3.59,1.21s2.96-.28,4.24-.83c1.28-.55,2.39-1.4,3.32-2.55.93-1.14,1.65-2.59,2.17-4.32.51-1.74.77-3.77.77-6.1v-22.09h14.12v32.22c0,1.97-.4,3.88-1.19,5.71-.79,1.84-1.87,3.46-3.23,4.89-1.36,1.42-2.95,2.57-4.75,3.43-1.8.87-3.71,1.3-5.72,1.3h-15.54c-2.33,0-4.4-.43-6.2-1.3-1.8-.87-3.33-2.01-4.6-3.43-1.27-1.42-2.23-3.05-2.88-4.89-.65-1.84-.98-3.74-.98-5.71l-.12-32.22h14.12Z"></path><path class="cls-2" d="M611.08,224.45c0,2.61.55,4.55,1.66,5.82,1.15,1.27,2.77,1.9,4.86,1.9,1.27,0,2.41-.12,3.44-.37.47-.12.89-.26,1.25-.41.36-.14.67-.28.95-.4l.36,10.54c-.36.12-.87.24-1.54.35-.67.12-1.48.26-2.43.41-1.9.24-3.94.35-6.11.35-5.66,0-9.89-1.38-12.7-4.15-2.85-2.68-4.27-6.79-4.27-12.32v-28.13c0-2.17.52-4.28,1.57-6.34,1.05-2.05,2.31-3.91,3.8-5.57,1.48-1.66,3.06-3.02,4.72-4.09s3.12-1.68,4.39-1.84l.06,14.87h11.86v10.36h-11.86v18.99Z"></path><path class="cls-2" d="M674.02,218.55c0,7.3-2.24,13.15-6.7,17.53-4.39,4.38-10.26,6.57-17.62,6.57s-13.25-2.19-17.68-6.57c-4.47-4.38-6.7-10.23-6.7-17.53s2.23-13.21,6.7-17.59c2.25-2.25,4.84-3.96,7.77-5.12,2.93-1.16,6.23-1.75,9.91-1.75s6.97.58,9.88,1.75c2.91,1.17,5.49,2.87,7.74,5.12,4.47,4.38,6.7,10.25,6.7,17.59ZM660.08,218.55c0-4.3-.89-7.64-2.67-10.01-1.82-2.41-4.39-3.61-7.71-3.61s-5.91,1.2-7.77,3.61c-1.78,2.37-2.67,5.71-2.67,10.01s.91,7.48,2.73,9.89c1.86,2.45,4.43,3.67,7.71,3.67s5.87-1.22,7.65-3.67c1.82-2.41,2.73-5.7,2.73-9.89Z"></path><path class="cls-2" d="M747.35,195.33c1.9.87,3.52,2.01,4.86,3.44,1.34,1.42,2.38,3.05,3.11,4.89s1.1,3.74,1.1,5.72v32.22h-14.77v-26.95c0-.36-.05-1.02-.15-1.98-.1-.97-.36-1.96-.77-2.99-.42-1.03-1.05-1.94-1.9-2.75-.85-.81-2.05-1.21-3.59-1.21-3.05,0-5.51,1.12-7.39,3.37-1.88,2.25-2.82,5.71-2.82,10.36v22.15h-14.83.06v-26.95c0-.36-.05-1.02-.15-1.98-.1-.97-.35-1.96-.77-2.99-.41-1.03-1.04-1.94-1.89-2.75-.85-.81-2.04-1.21-3.58-1.21s-2.94.28-4.2.83c-1.26.55-2.35,1.39-3.28,2.52-.93,1.12-1.65,2.56-2.16,4.29-.51,1.74-.77,3.77-.77,6.1v22.15h-14.65v-32.22c0-1.97.42-3.88,1.28-5.72.85-1.84,1.99-3.46,3.41-4.89,1.42-1.42,3.06-2.57,4.89-3.44,1.84-.87,3.77-1.3,5.78-1.3h12.46c1.82,0,3.45.23,4.89.68,1.44.45,2.71,1.01,3.8,1.66s2.01,1.37,2.76,2.16c.75.79,1.34,1.5,1.78,2.13.59-.83,1.38-1.65,2.37-2.46.99-.81,2.08-1.52,3.26-2.13,1.19-.61,2.4-1.1,3.65-1.48,1.25-.37,2.38-.56,3.41-.56h8.48c2.29,0,4.39.44,6.29,1.3Z"></path><path class="cls-2" d="M792.85,241.52v-7.75c-.79,1.03-1.58,1.99-2.37,2.86-.67.76-1.39,1.5-2.17,2.23-.77.73-1.49,1.28-2.17,1.64-2.61,1.43-5.48,2.14-8.6,2.14-5.38,0-9.59-1.32-12.64-3.97-3.05-2.6-4.57-6-4.57-10.19,0-5.09,2.02-9,6.05-11.73,2.02-1.34,4.48-2.38,7.39-3.11,2.91-.73,6.28-1.07,10.12-1.04l7.24.12c-.16-1.14-.49-2.25-1.01-3.32-.32-.59-.74-1.19-1.28-1.78-.53-.59-1.2-1.16-1.99-1.72-.12-.08-.24-.16-.36-.24-.12-.08-.24-.16-.36-.24-.16-.08-.32-.17-.48-.27-.16-.1-.34-.19-.53-.27-.28-.08-.55-.16-.83-.24-.28-.08-.59-.16-.95-.24h-.36c-.28-.04-.55-.07-.83-.09s-.61-.03-1.01-.03c-1.34,0-2.68.11-4,.33s-2.68.54-4.06.98c-1.38.43-2.69.94-3.92,1.51-1.23.57-2.33,1.23-3.32,1.98v-11.19c1.98-1.06,4.61-1.93,7.89-2.6,1.7-.35,3.38-.63,5.04-.83,1.66-.2,3.32-.3,4.98-.3h6.88c2.29,0,4.38.43,6.26,1.27,1.88.85,3.49,1.98,4.84,3.41,1.34,1.42,2.37,3.05,3.09,4.89s1.07,3.72,1.07,5.66v7.99h-.06l.06,24.11h-13.05ZM792.2,220.38c-.47.2-1.25.3-2.31.3-.55,0-1.18,0-1.87.03-.69.02-1.45.03-2.28.03-4,.12-6.9.69-8.72,1.71-1.9,1.14-2.85,2.75-2.85,4.83,0,1.61.63,2.89,1.9,3.83,1.23.94,3.03,1.41,5.4,1.41,3.2,0,5.79-1.18,7.77-3.54,1.98-2.32,2.97-4.81,2.97-7.48v-1.12Z"></path><path class="cls-2" d="M825.83,224.45c0,2.61.55,4.55,1.66,5.82,1.15,1.27,2.77,1.9,4.86,1.9,1.27,0,2.41-.12,3.44-.37.47-.12.89-.26,1.25-.41.36-.14.67-.28.95-.4l.36,10.54c-.36.12-.87.24-1.54.35-.67.12-1.48.26-2.43.41-1.9.24-3.94.35-6.11.35-5.66,0-9.89-1.38-12.7-4.15-2.85-2.68-4.27-6.79-4.27-12.32v-28.13c0-2.17.52-4.28,1.57-6.34s2.31-3.91,3.8-5.57c1.48-1.66,3.06-3.02,4.72-4.09s3.12-1.68,4.39-1.84l.06,14.87h11.86v10.36h-11.86v18.99Z"></path><path class="cls-2" d="M843.28,182.95h14.12v7.76h-14.12v-7.76ZM843.28,195.33h14.06v46.31h.12-14.18v-46.31Z"></path><path class="cls-2" d="M910.79,218.55c0,7.3-2.24,13.15-6.7,17.53-4.39,4.38-10.26,6.57-17.62,6.57s-13.25-2.19-17.68-6.57c-4.47-4.38-6.7-10.23-6.7-17.53s2.23-13.21,6.7-17.59c2.25-2.25,4.84-3.96,7.77-5.12,2.93-1.16,6.23-1.75,9.91-1.75s6.97.58,9.88,1.75c2.91,1.17,5.49,2.87,7.74,5.12,4.47,4.38,6.7,10.25,6.7,17.59ZM896.85,218.55c0-4.3-.89-7.64-2.67-10.01-1.82-2.41-4.39-3.61-7.71-3.61s-5.91,1.2-7.77,3.61c-1.78,2.37-2.67,5.71-2.67,10.01s.91,7.48,2.73,9.89c1.86,2.45,4.43,3.67,7.71,3.67s5.87-1.22,7.65-3.67c1.82-2.41,2.73-5.7,2.73-9.89Z"></path><path class="cls-2" d="M946.92,241.64v-26.95c0-.36-.04-1.02-.12-1.98-.08-.97-.33-1.96-.74-2.99-.42-1.03-1.05-1.94-1.9-2.75-.85-.81-2.05-1.21-3.59-1.21s-2.95.28-4.21.83c-1.27.55-2.36,1.39-3.29,2.52-.93,1.12-1.65,2.56-2.17,4.29-.51,1.74-.77,3.77-.77,6.1v22.15h-14.54v-32.28c0-1.93.42-3.82,1.28-5.66.85-1.84,1.98-3.46,3.38-4.89,1.4-1.42,3.03-2.57,4.86-3.44,1.84-.87,3.77-1.3,5.78-1.3h15.48c2.29,0,4.39.44,6.29,1.3,1.9.87,3.51,2.01,4.84,3.44,1.32,1.42,2.35,3.05,3.09,4.89.73,1.84,1.1,3.72,1.1,5.66v32.28h-14.77Z"></path></g><path class="cls-2" d="M799.04,61.23c3.35-3.58,25.81-26.75,60.94-25.27,30.46,1.29,49.49,20.25,53.57,24.52,0,0-74.44,34.02-74.44,34.03,3.49-12.4,6.97-24.81,10.46-37.21-.01,0-6.01.56-7.5.73-7.03.8-12.7,4.05-15.24,5.5-1.99,1.14-7.62,4.58-13.02,11.03-2.96,3.54-4.79,6.73-5.69,8.43,0,0-3.83,7.18-5.27,16-1.59,9.72.09,32.6,14.97,50.89,24.28,29.83,65.29,25.28,71.07,24.64,6.37-.7,19.69-2.16,33.09-10.73,12.29-7.87,25.62-22.36,25.62-22.36-.16-.11-24.99-17.8-24.99-17.8-.48.18-23.28,12.58-42.36,10.15-1.96-.25-8.09-1.03-14.56-4.55-3.96-2.16-6.94-4.69-6.94-4.69,0,0-.81-.69-5.28-4.95,0,0,112.54-31.18,112.62-31.2.03-1.11.05-2.73,0-4.68,0,0-.54-22.06-9.73-40.45C946.69,23.92,918.51.65,883.92.01c-36.29-.67-70.57,23.75-84.88,61.22"></path></g></g></svg>