<svg id="katman_2" xmlns="http://www.w3.org/2000/svg" viewBox="0 0 1488.34 439.18"><defs><style>
      .cls-1 {
        fill: #fff;
      }
      .cls-2 {
        fill: #f39104;
      }
    </style></defs><g id="Protam_Group"><g><path class="cls-1" d="M782.1,266.26c-5.51,5.89-26.54,20.69-30.48,23.57-.76.56-2.07.79-1.9,2.23,0,0-.07-.08-.07-.08-1.22-.27-1.89.31-2.17,1.47l.02-.02c-1.13-.13-1.87.33-2.17,1.48l.03-.02c-.54-.11-.87.03-.82.67l.04-.03c-.74-.19-1.26,0-1.41.84l.03-.03c-.49-.06-.85.06-.82.67l.04-.03c-.74-.18-1.25.02-1.41.84l.04-.04c-.48-.02-.82.13-.81.7l.05-.04s-.03.03-.05.04c-.36.34-.85.66-1.52.88-.82.41-1.64.81-2.7,1.34-.5-6.39-1.17-12.47-1.41-18.57-.4-10.11-.21-20.25-.84-30.34-.75-12.13-.84-24.28-1.41-36.41-.54-11.53-.81-23.08-1.39-34.6-.44-8.76-2.23-17.3-9.38-23.54-2.49-2.17-5.22-3.75-8.35-3.81-5.37-.09-10.73-.19-16.03,1.68-8.61,3.04-14.34,9.16-17.56,17.36-3.48,8.87-5.43,18.13-5.27,27.97.38,23.31.08,46.64.19,69.95.01,2.66-.53,3.42-3.26,3.39-14.65-.16-29.31-.14-43.96-.01-2.52.02-3.08-.66-3.08-3.18.1-28.3.12-56.6.02-84.9-.03-7.6-.67-15.18-4.81-21.9-3.85-6.25-8.83-10.38-16.61-10.43-6.57-.04-12.79.65-18.49,4.33-9.92,6.4-14.63,15.94-16.43,27.39-.98,6.24-1.04,12.52-1.04,18.8,0,22.1-.05,44.21.07,66.31.01,2.84-.68,3.61-3.5,3.58-14.53-.16-29.07-.13-43.6-.02-2.61.02-3.58-.41-3.57-3.44.12-35.1-.08-70.2.17-105.3.08-11.92,4.83-22.29,12.24-31.52,8.21-10.24,18.74-16.34,31.28-19.03,2.99-.64,6.09-.94,9.15-.96,14.3-.1,28.59-.17,42.89,0,8.02.1,15.72,1.79,23.3,4.82,8.1,3.24,14.37,8.52,19.68,15.21,1.51,1.91,2.28,1.63,3.65.03,8.88-10.43,20.54-15.88,33.39-19.11,4.49-1.13,9.1-1.07,13.71-1.03,7.39.07,14.77-.08,22.16.04,19.49.3,35.22,7.53,46.41,24.64,5.55,8.48,7.92,17.51,7.96,27.23.13,33.63-.09,67.27-.18,100.9"></path><path class="cls-1" d="M161.26,221.01c0,17.61-.11,35.23.1,52.84.04,3.37-.99,3.92-4.05,3.89-14.47-.16-28.95-.16-43.42,0-3.08.03-4.07-.54-4.05-3.89.16-28.55.09-57.09.09-85.64,0-5.36-.49-10.73-2.34-15.73-4.5-12.18-14.19-17.33-27.11-14.93-16.07,2.99-25.68,15.89-27.9,31.25-.94,6.49-1.27,12.99-1.28,19.53,0,21.99-.05,43.97.06,65.96.01,2.58-.41,3.49-3.29,3.46-14.96-.17-29.92-.15-44.87-.01-2.58.02-3.17-.67-3.16-3.19.09-34.86-.26-69.73.22-104.58.19-13.97,5.84-26.23,15.98-36.22,6.41-6.32,13.71-11.13,22.32-13.79,5.19-1.6,10.55-2.4,16.01-2.4,17.63.02,35.27-.05,52.9.03,12.83.05,24.27,3.79,34.58,11.83,11.21,8.74,16.78,20.1,18.62,33.78,1.25,9.3.39,18.64.55,27.95.17,9.96.04,19.92.04,29.88"></path><path class="cls-1" d="M185.24,198.96c-.16-10.34.36-20.09,3.98-29.24,4.36-11.03,9.46-21.77,18.34-30.05,12.43-11.59,26.75-19.36,43.83-21.94,9.15-1.38,18.26-2.13,27.46-1.38,19.81,1.6,37.28,8.29,52.26,21.95,10.72,9.77,16.67,21.77,21.14,35.07,2.98,8.89,3.75,18.02,3.54,27.2-.46,20.07-6.52,38.43-20.06,53.42-11.23,12.43-25.72,19.95-42.19,23.47-11.39,2.44-23,2.89-34.48,1.98-9.17-.73-18.22-2.94-26.98-6.42-10.08-4.01-18.49-10.23-26.03-17.61-6.28-6.14-10.45-13.87-14.08-21.92-2.56-5.69-4.66-11.47-5.72-17.53-1-5.77-1.19-11.69-1.01-16.99M234.47,198.78c.16,4.13.21,8.75,1.17,13.28,2.44,11.56,6.65,21.9,18.01,27.87,16.13,8.48,40.98,4.47,49.02-17.83,4.7-13.03,4.83-26.35,2.31-39.79-3.83-20.45-18.09-31.16-38.31-29.41-11.86,1.03-21.16,6.45-26.61,17.51-4.35,8.81-5.41,18.26-5.59,28.37"></path><path class="cls-1" d="M990.99,200.66c-.66-10.36.65-20.63,4.25-30.15,2.7-7.13,6.25-14.23,11.12-20.35,7.67-9.61,16.88-17.49,27.98-22.86,7.68-3.72,15.85-6.18,24.35-7.45,17.41-2.59,34.56-1.66,51.19,4.29,9.88,3.54,18.51,9.22,26.44,16.22,10.98,9.7,17.1,21.86,21.49,35.58,4.79,14.96,4.95,30.01,1.66,44.82-3.12,14.02-9.01,27.38-19.69,37.62-12.81,12.3-28.05,19.86-45.86,22.45-9.62,1.4-19.25,1.73-28.82,1.14-8.36-.51-16.55-2.7-24.6-5.45-11.94-4.07-21.46-11.5-30.14-20.17-5.14-5.13-8.5-11.58-11.8-18-2.77-5.4-4.51-11.09-5.93-17.02-1.65-6.89-1.03-13.82-1.64-20.67M1112.28,199.49c.21-2.36-.18-6-.72-9.59-1.71-11.2-4.84-21.55-14.91-28.62-18.71-13.13-45.3-5.28-52.79,16.2-5.18,14.85-5.16,30.06-.44,45.03,2.84,9.01,8.03,16.33,17.09,20.58,15.32,7.19,37.51,3.43,46.18-14.77,4.18-8.76,5.49-17.99,5.6-28.83"></path><path class="cls-1" d="M1429.05,212.33c-15.81,0-31.61.07-47.42-.07-2.89-.03-3.4.76-2.67,3.37,4.86,17.41,16.06,26.64,33.94,29.14,20.16,2.82,39.03-2,57.44-9.52,2.83-1.16,3.47-.7,3.44,2.26-.12,10.2-.1,20.4,0,30.6.02,2.1-.45,3.15-2.67,3.85-9.46,2.99-19.07,5.1-28.93,6.39-11.3,1.48-22.64,1.69-33.95,1.24-6.3-.25-12.61-1.7-18.81-3.09-10.1-2.27-19.16-6.92-27.66-12.81-5.86-4.06-10.35-9.29-14.78-14.76-7.25-8.96-10.92-19.45-13.04-30.42-1.25-6.47-1.89-13.16-1.62-19.9.31-7.51-.58-15.11.12-22.57.76-8.05,3.08-15.87,6.9-23.14,3.82-7.27,8.69-13.74,14.1-19.94,7.23-8.29,16.06-13.63,26.66-16.16,1.99-.48,4.09-.68,6.13-.68,16.53.02,33.07-.2,49.59.32,10.41.33,19.21,5.08,27.07,11.94,12.51,10.92,16.99,25,17.15,40.96.13,12.99.08,25.98.33,38.97.06,3.08-.54,4.11-3.9,4.07-15.8-.21-31.61-.09-47.42-.09M1378.62,181.91c.26.07.6.24.95.24,20.42.09,40.84.15,61.26.29,1.71.01,1.6-.91,1.66-2.07.73-14.7-8-26.78-22.17-29.96-10.95-2.46-21.44-1.36-29.8,7.02-6.69,6.7-11.29,14.65-11.89,24.47"></path><path class="cls-1" d="M379.71,230c0-14.69.03-29.38,0-44.07-.02-6.82.42-13.79,3.53-19.78,4.4-8.48,8.61-17.13,15.43-24.25,6.23-6.51,13.14-11.87,21.11-15.91,4.51-2.29,9.5-3.08,14.43-3.71,11.71-1.49,23.52-2.07,35.31-2.06,6.79,0,13.69.26,20.43,1.85,1.93.46,2.64,1.15,2.55,3.1-.57,12.4-.89,24.81-2.23,37.16-.56,5.19-.7,5.09-5.77,3.94-12.17-2.75-23.89-2.79-34.91,4.49-9.79,6.46-14.4,15.88-16.95,26.76-1.27,5.42-1.59,10.92-1.59,16.46.02,20.88-.05,41.77.08,62.65.02,2.89-.48,3.92-3.67,3.88-14.71-.19-29.42-.19-44.12,0-3.23.04-3.7-1.03-3.68-3.89.14-15.54.07-31.08.07-46.62"></path><g><path class="cls-2" d="M712.98,352.62c2.09,0,4,.53,5.73,1.59,1.73,1.06,3.2,2.46,4.43,4.19,1.22,1.73,2.17,3.72,2.83,5.95.67,2.24,1,4.53,1,6.87v39.15h-13.45v-32.76c0-.43-.14-1.23-.43-2.41s-.74-2.38-1.35-3.63c-.61-1.25-1.4-2.36-2.38-3.34-.97-.98-2.16-1.47-3.56-1.47s-2.69.34-3.86,1.01c-1.17.67-2.18,1.7-3.02,3.09-.85,1.39-1.5,3.13-1.97,5.21-.47,2.08-.7,4.54-.7,7.36v26.94h-13.34v-63.53c0-1.77.24-3.53.73-5.28s1.12-3.41,1.89-4.99c.77-1.58,1.66-3.06,2.65-4.45.99-1.39,1.97-2.59,2.94-3.59.97-1.01,1.91-1.8,2.81-2.37s1.66-.86,2.27-.86v37.07l.06-.07c.9-1.64,1.88-3.06,2.94-4.26,1.06-1.2,2.12-2.19,3.16-2.96,1.04-.77,2.03-1.36,2.97-1.77.94-.41,1.73-.64,2.38-.69,1.58-.19,2.78-.24,3.59-.14.81.1,1.38.14,1.7.14Z"></path><path class="cls-2" d="M779.31,354.05l-15.45,52.08c-1.04,3.55-2.08,6.98-3.11,10.31-1.03,3.33-2.28,6.29-3.75,8.87-1.48,2.58-3.29,4.66-5.45,6.21-2.16,1.56-4.92,2.34-8.27,2.34-.97,0-1.94.04-2.92.11-.97.07-1.93.08-2.86.04l.81-11.92c.29-.05.59-.08.89-.11.31-.02.64-.06,1-.11,1.76-.24,3.14-.8,4.13-1.69s1.74-1.93,2.24-3.12c.5-1.2.82-2.47.94-3.81.13-1.34.19-2.59.19-3.74l-16.48-55.46h15.67l9.07,36.56h.16l8.64-36.56h14.53Z"></path><path class="cls-2" d="M824.9,325.25h.05v85.05h-11.83v-9.41c-.43.82-.94,1.62-1.51,2.41-.58.79-1.19,1.54-1.84,2.26s-1.29,1.38-1.92,1.98c-.63.6-1.22,1.07-1.76,1.4-2.56,1.72-5.31,2.59-8.26,2.59-6.09,0-10.86-2.75-14.31-8.26-3.42-5.51-5.13-12.88-5.13-22.13,0-8.62,1.71-15.51,5.13-20.69,1.73-2.68,3.72-4.61,5.97-5.78s4.82-1.86,7.7-2.05c.5-.05.99-.06,1.46-.04.47.02.94.09,1.4.18h.05c.11,0,.18.02.22.07.22,0,.5.05.86.14.04,0,.07.01.11.04.04.02.09.04.16.04.5.19,1.01.39,1.51.61.5.21,1.03.49,1.57.83,1.33.91,2.65,2.11,3.94,3.59.11.1.22.23.35.4.13.17.24.32.35.47.14.14.28.3.4.47.13.17.26.35.4.54.11.14.22.31.32.5.11.19.22.36.33.5.18.24.33.47.46.68.13.21.28.44.46.68v-15.66c0-1.77.24-3.52.73-5.24s1.12-3.38,1.92-4.96c.79-1.58,1.67-3.05,2.65-4.42.97-1.37,1.95-2.55,2.94-3.56.99-1.01,1.94-1.8,2.84-2.37.9-.58,1.66-.86,2.27-.86ZM808.69,393.63c1.87-2.87,2.81-6.51,2.81-10.92,0-1.29-.05-2.54-.16-3.74-.11-1.2-.29-2.32-.54-3.38-.18-.81-.44-1.62-.78-2.41-.34-.79-.71-1.59-1.11-2.41-1.73-3.06-4.11-4.6-7.13-4.6s-5.2,1.39-6.97,4.17c-1.73,2.83-2.59,6.54-2.59,11.13,0,4.89.85,8.86,2.54,11.93,1.69,2.97,4.01,4.45,6.97,4.45s5.13-1.41,6.97-4.24Z"></path><path class="cls-2" d="M858.07,369.43c-2.56-.96-4.8-1.21-6.72-.75-1.93.45-3.54,1.47-4.83,3.05s-2.28,3.65-2.94,6.21c-.67,2.56-1,5.49-1,8.8v23.56h-13.23v-34.27c0-2.39.39-4.86,1.16-7.4s1.81-4.9,3.11-7.08c1.3-2.18,2.79-4.02,4.48-5.53,1.69-1.51,3.46-2.41,5.29-2.69,2.23-.29,4.34-.5,6.32-.65.86-.05,1.73-.08,2.59-.11.86-.02,1.7,0,2.51.07.81.07,1.56.18,2.24.32.68.14,1.24.34,1.67.58l-.65,15.88Z"></path><path class="cls-2" d="M887.61,410.16v-9.4c-.72,1.25-1.44,2.41-2.16,3.47-.61.91-1.27,1.82-1.97,2.71s-1.36,1.55-1.97,1.99c-2.38,1.74-4.99,2.6-7.83,2.6-4.9,0-8.73-1.6-11.51-4.81-2.77-3.16-4.16-7.28-4.16-12.36,0-6.18,1.84-10.92,5.51-14.22,1.84-1.63,4.08-2.89,6.73-3.77,2.65-.89,5.72-1.31,9.21-1.26l6.59.14c-.15-1.39-.45-2.73-.92-4.02-.29-.72-.67-1.44-1.16-2.15s-1.09-1.41-1.81-2.08c-.11-.1-.22-.19-.32-.29-.11-.1-.22-.19-.33-.29-.14-.09-.29-.2-.43-.32-.15-.12-.31-.23-.49-.32-.25-.1-.5-.19-.76-.29-.25-.1-.54-.19-.86-.29h-.32c-.25-.05-.5-.08-.76-.11-.25-.02-.56-.04-.92-.04-1.22,0-2.44.13-3.65.39-1.21.26-2.44.66-3.7,1.19-1.26.53-2.45,1.14-3.57,1.83-1.12.69-2.12,1.5-3.02,2.41v-13.58c1.8-1.29,4.2-2.35,7.18-3.16,1.55-.43,3.08-.77,4.59-1.01,1.51-.24,3.03-.36,4.54-.36h6.27c2.09,0,3.99.52,5.7,1.54,1.71,1.03,3.18,2.41,4.4,4.13,1.22,1.72,2.16,3.7,2.81,5.93.65,2.23.97,4.51.97,6.86v9.7h-.06l.06,29.24h-11.88ZM887.02,384.51c-.43.24-1.13.36-2.11.36-.5,0-1.07.01-1.7.04-.63.02-1.32.04-2.08.04-3.64.14-6.29.83-7.94,2.07-1.73,1.38-2.59,3.33-2.59,5.86,0,1.95.58,3.5,1.73,4.65,1.12,1.14,2.76,1.72,4.92,1.72,2.92,0,5.28-1.43,7.08-4.29,1.8-2.81,2.7-5.84,2.7-9.08v-1.36Z"></path><path class="cls-2" d="M916.78,353.84l.11,32.61c0,.43.04,1.23.11,2.41.07,1.17.3,2.39.67,3.66.38,1.27.95,2.4,1.73,3.38.77.98,1.86,1.47,3.27,1.47s2.69-.33,3.86-1.01c1.17-.67,2.18-1.7,3.03-3.09.85-1.39,1.5-3.14,1.97-5.24.47-2.11.7-4.57.7-7.4v-26.79h12.86v39.08c0,2.4-.36,4.7-1.08,6.93-.72,2.23-1.7,4.2-2.94,5.93-1.24,1.72-2.68,3.11-4.32,4.17s-3.38,1.58-5.21,1.58h-14.15c-2.12,0-4.01-.53-5.64-1.58-1.64-1.05-3.03-2.44-4.19-4.17-1.15-1.72-2.03-3.7-2.62-5.93-.6-2.23-.89-4.54-.89-6.93l-.11-39.08h12.86Z"></path><path class="cls-2" d="M950.49,346.73c0-1.72.24-3.46.73-5.21.49-1.75,1.13-3.41,1.92-4.99.79-1.58,1.67-3.05,2.65-4.42s1.95-2.55,2.94-3.56c.99-1.01,1.93-1.8,2.83-2.37s1.66-.86,2.27-.86v84.98h-13.34v-63.57Z"></path><path class="cls-2" d="M970.32,339.11h12.86v9.41h-12.86v-9.41ZM970.32,354.13h12.8v56.17h.11-12.91v-56.17Z"></path><path class="cls-2" d="M1022.98,396.15v13.58c-.4.1-.95.24-1.65.43-.7.19-1.58.41-2.62.65-1.05.24-2.15.42-3.32.54-1.17.12-2.44.18-3.81.18-7.56,0-13.54-2.68-17.93-8.05-4.43-5.32-6.64-12.62-6.64-21.91v-4.67c0-3.3.5-6.43,1.49-9.37.99-2.95,2.4-5.76,4.24-8.44,1.73-2.54,3.6-4.25,5.62-5.14,2.02-.88,4.09-1.33,6.21-1.33h10.53c.61,0,1.27.09,1.97.25.7.17,1.4.39,2.08.65.68.26,1.31.57,1.89.93.58.36,1.06.71,1.46,1.04l-.97,13.07c-.65-.62-1.77-1.22-3.35-1.8-1.51-.62-3.22-.93-5.13-.93-3.67,0-6.59,1.44-8.75,4.31-2.2,2.87-3.3,6.71-3.3,11.49,0,5.03,1.12,9.03,3.35,12,2.3,2.97,5.35,4.45,9.13,4.45,2.16,0,4.09-.29,5.78-.86.86-.29,1.64-.51,2.32-.68s1.15-.3,1.4-.4Z"></path><path class="cls-2" d="M1110.92,352.62c2.09,0,4,.53,5.73,1.59,1.73,1.06,3.2,2.46,4.43,4.19,1.22,1.73,2.17,3.72,2.83,5.95.67,2.24,1,4.53,1,6.87v39.15h-13.45v-32.76c0-.43-.14-1.23-.43-2.41s-.74-2.38-1.35-3.63c-.61-1.25-1.4-2.36-2.38-3.34-.97-.98-2.16-1.47-3.56-1.47s-2.69.34-3.86,1.01-2.18,1.7-3.02,3.09c-.85,1.39-1.5,3.13-1.97,5.21-.47,2.08-.7,4.54-.7,7.36v26.94h-13.34v-63.53c0-1.77.24-3.53.73-5.28s1.12-3.41,1.89-4.99c.77-1.58,1.66-3.06,2.65-4.45.99-1.39,1.97-2.59,2.94-3.59.97-1.01,1.91-1.8,2.81-2.37s1.66-.86,2.27-.86v37.07l.06-.07c.9-1.64,1.88-3.06,2.94-4.26,1.06-1.2,2.12-2.19,3.16-2.96,1.04-.77,2.03-1.36,2.97-1.77.94-.41,1.73-.64,2.38-.69,1.58-.19,2.78-.24,3.59-.14.81.1,1.38.14,1.7.14Z"></path><path class="cls-2" d="M1172.72,382.29c0,8.86-2.04,15.95-6.1,21.26-4,5.32-9.35,7.97-16.04,7.97s-12.06-2.66-16.1-7.97c-4.07-5.32-6.1-12.4-6.1-21.26s2.03-16.02,6.1-21.33c2.05-2.73,4.41-4.8,7.08-6.21,2.66-1.41,5.67-2.12,9.02-2.12s6.35.71,8.99,2.12c2.65,1.41,5,3.48,7.05,6.21,4.07,5.32,6.1,12.43,6.1,21.33ZM1160.02,382.29c0-5.22-.81-9.27-2.43-12.14-1.66-2.92-4-4.38-7.02-4.38s-5.38,1.46-7.08,4.38c-1.62,2.87-2.43,6.92-2.43,12.14s.83,9.07,2.48,12c1.69,2.97,4.03,4.45,7.02,4.45s5.35-1.48,6.97-4.45c1.66-2.92,2.48-6.92,2.48-12Z"></path><path class="cls-2" d="M1208.96,392.99c0,5.89-1.75,10.47-5.24,13.72-3.42,3.21-8.19,4.81-14.31,4.81-1.4,0-2.78-.07-4.13-.21-1.35-.14-2.67-.34-3.97-.58-1.33-.24-2.53-.54-3.59-.9-1.06-.36-2.01-.75-2.84-1.18l.86-13.51c.36.25.94.55,1.73.91.79.37,1.82.84,3.08,1.42,2.52,1.17,5.22,1.75,8.1,1.75,2.02,0,3.67-.41,4.97-1.22,1.22-.77,1.84-2.16,1.84-4.17,0-1.63-.63-2.95-1.89-3.96-.65-.48-1.54-.98-2.67-1.51-1.13-.53-2.51-1.03-4.13-1.51-1.73-.53-3.31-1.2-4.75-2.01-1.44-.81-2.75-1.85-3.94-3.09-2.34-2.45-3.51-6.21-3.51-11.3,0-5.66,1.76-10.05,5.29-13.17,3.53-3.12,7.96-4.68,13.29-4.68,2.38,0,4.81.29,7.29.86,1.22.29,2.34.58,3.35.86,1.01.29,1.93.62,2.75,1.01l-.81,12.79c-1.37-.96-3.06-1.75-5.08-2.37-2.13-.58-4.16-.86-6.1-.86-2.38,0-4.12.38-5.24,1.15-1.12.77-1.67,1.96-1.67,3.59,0,1.34.61,2.39,1.84,3.16.65.43,1.61.91,2.89,1.44,1.28.53,2.89,1.1,4.83,1.72,4.1,1.39,7.09,3.47,8.97,6.25,1.87,2.78,2.81,6.37,2.81,10.77Z"></path><path class="cls-2" d="M1223.66,387.6l-.05-.07c.58,3.29,1.44,5.76,2.59,7.43,2.05,2.86,5.17,4.28,9.34,4.28,2.74,0,5.31-.52,7.72-1.55,2.56-1.04,4.27-1.91,5.13-2.61v13.29c-.94.53-1.94.97-3,1.33-1.06.36-2.17.68-3.32.97-2.34.57-4.93.86-7.78.86-7.1,0-12.66-2.61-16.69-7.83-2.05-2.59-3.56-5.7-4.54-9.34-.97-3.64-1.46-7.78-1.46-12.43v-5.96c0-1.58.17-3.26.51-5.03.34-1.77.83-3.52,1.46-5.24.63-1.72,1.39-3.38,2.27-4.96.88-1.58,1.85-2.97,2.92-4.17,1.06-1.2,2.21-2.16,3.43-2.87,1.22-.72,2.48-1.08,3.78-1.08h11.34c1.94,0,3.7.53,5.27,1.58,1.57,1.05,2.91,2.44,4.02,4.17,1.12,1.72,1.98,3.7,2.59,5.93.61,2.23.92,4.51.92,6.86v9.2c0,.91,0,1.82.03,2.73.02.91.03,1.85.03,2.8v1.37h-26.52v.36ZM1225.01,376.47h14.53l.86.07c-.04-3.93-.78-6.92-2.21-8.98-1.4-2.01-3.42-3.02-6.05-3.02-2.77,0-4.97,1.56-6.59,4.67-.97,1.82-1.64,4.24-2,7.26h1.46Z"></path><path class="cls-2" d="M1342.87,392.99c0,5.89-1.75,10.47-5.24,13.72-3.42,3.21-8.19,4.81-14.31,4.81-1.4,0-2.78-.07-4.13-.21-1.35-.14-2.67-.34-3.97-.58-1.33-.24-2.53-.54-3.59-.9-1.06-.36-2.01-.75-2.84-1.18l.86-13.51c.36.25.94.55,1.73.91.79.37,1.82.84,3.08,1.42,2.52,1.17,5.22,1.75,8.1,1.75,2.02,0,3.67-.41,4.97-1.22,1.22-.77,1.84-2.16,1.84-4.17,0-1.63-.63-2.95-1.89-3.96-.65-.48-1.54-.98-2.67-1.51-1.13-.53-2.51-1.03-4.13-1.51-1.73-.53-3.31-1.2-4.75-2.01-1.44-.81-2.75-1.85-3.94-3.09-2.34-2.45-3.51-6.21-3.51-11.3,0-5.66,1.76-10.05,5.29-13.17,3.53-3.12,7.96-4.68,13.29-4.68,2.38,0,4.81.29,7.29.86,1.22.29,2.34.58,3.35.86,1.01.29,1.93.62,2.75,1.01l-.81,12.79c-1.37-.96-3.06-1.75-5.08-2.37-2.13-.58-4.16-.86-6.1-.86-2.38,0-4.12.38-5.24,1.15-1.12.77-1.67,1.96-1.67,3.59,0,1.34.61,2.39,1.84,3.16.65.43,1.61.91,2.89,1.44,1.28.53,2.89,1.1,4.83,1.72,4.1,1.39,7.09,3.47,8.97,6.25,1.87,2.78,2.81,6.37,2.81,10.77Z"></path><path class="cls-2" d="M1376.42,352.62c2.09,0,4,.53,5.73,1.59,1.73,1.06,3.2,2.46,4.43,4.19,1.22,1.73,2.17,3.72,2.83,5.95.67,2.24,1,4.53,1,6.87v39.15h-13.45v-32.76c0-.43-.14-1.23-.43-2.41s-.74-2.38-1.35-3.63c-.61-1.25-1.4-2.36-2.38-3.34-.97-.98-2.16-1.47-3.56-1.47s-2.69.34-3.86,1.01c-1.17.67-2.18,1.7-3.02,3.09-.85,1.39-1.5,3.13-1.97,5.21-.47,2.08-.7,4.54-.7,7.36v26.94h-13.34v-63.53c0-1.77.24-3.53.73-5.28s1.12-3.41,1.89-4.99c.77-1.58,1.66-3.06,2.65-4.45.99-1.39,1.97-2.59,2.94-3.59.97-1.01,1.91-1.8,2.81-2.37s1.66-.86,2.27-.86v37.07l.06-.07c.9-1.64,1.88-3.06,2.94-4.26,1.06-1.2,2.12-2.19,3.16-2.96,1.04-.77,2.03-1.36,2.97-1.77.94-.41,1.73-.64,2.38-.69,1.58-.19,2.78-.24,3.59-.14.81.1,1.38.14,1.7.14Z"></path><path class="cls-2" d="M1438.22,382.29c0,8.86-2.04,15.95-6.1,21.26-4,5.32-9.35,7.97-16.04,7.97s-12.06-2.66-16.1-7.97c-4.07-5.32-6.1-12.4-6.1-21.26s2.03-16.02,6.1-21.33c2.05-2.73,4.41-4.8,7.08-6.21,2.66-1.41,5.67-2.12,9.02-2.12s6.35.71,8.99,2.12c2.65,1.41,5,3.48,7.05,6.21,4.07,5.32,6.1,12.43,6.1,21.33ZM1425.52,382.29c0-5.22-.81-9.27-2.43-12.14-1.66-2.92-4-4.38-7.02-4.38s-5.38,1.46-7.08,4.38c-1.62,2.87-2.43,6.92-2.43,12.14s.83,9.07,2.48,12c1.69,2.97,4.03,4.45,7.02,4.45s5.35-1.48,6.97-4.45c1.66-2.92,2.48-6.92,2.48-12Z"></path><path class="cls-2" d="M1441.83,439.18h-.05v-85.05h11.83v9.48c.43-.81.95-1.63,1.54-2.44.59-.81,1.21-1.58,1.84-2.3.63-.72,1.26-1.36,1.89-1.94.63-.58,1.21-1.05,1.76-1.44,2.52-1.72,5.28-2.59,8.26-2.59,6.09,0,10.86,2.75,14.31,8.26,3.42,5.41,5.13,12.79,5.13,22.13,0,8.62-1.71,15.52-5.13,20.69-1.73,2.68-3.72,4.62-5.97,5.82-2.25,1.2-4.82,1.87-7.7,2.01-.5.05-.99.06-1.46.04-.47-.02-.94-.08-1.4-.18h-.27l-.81-.22c-.07,0-.13-.01-.16-.04-.04-.03-.09-.04-.16-.04-.5-.19-1.01-.4-1.51-.61s-1.03-.49-1.57-.83c-.65-.38-1.31-.89-1.97-1.51-.67-.62-1.32-1.32-1.97-2.08-.11-.1-.23-.23-.35-.4s-.24-.32-.35-.47c-.14-.14-.28-.3-.4-.47s-.26-.35-.4-.54c-.11-.14-.22-.3-.32-.47-.11-.17-.22-.35-.33-.54-.14-.24-.29-.47-.43-.68-.14-.21-.29-.44-.43-.68-.04,2.78-.05,5.29-.05,7.54v8.12c0,1.72-.24,3.46-.73,5.21s-1.13,3.41-1.92,4.99c-.79,1.58-1.67,3.05-2.65,4.42-.97,1.37-1.95,2.55-2.94,3.56-.99,1.01-1.94,1.8-2.84,2.37-.9.58-1.66.86-2.27.86ZM1458.04,370.79c-1.87,2.87-2.81,6.54-2.81,10.99,0,2.68.23,5.03.7,7.04.43,1.68,1.08,3.28,1.94,4.81,1.66,3.06,4.01,4.6,7.08,4.6s5.24-1.39,6.97-4.17c1.73-2.78,2.59-6.49,2.59-11.13,0-5.03-.85-8.98-2.54-11.85-1.69-3.02-4.02-4.53-6.97-4.53-2.74,0-5.06,1.41-6.97,4.24Z"></path></g><path class="cls-1" d="M1312.64,234.96c0,16.51-6.51,29.32-19.53,38.45-12.75,8.99-30.53,13.49-53.35,13.49-5.23,0-10.37-.2-15.4-.6-5.03-.4-9.97-.94-14.8-1.61-4.97-.67-9.43-1.51-13.39-2.52-3.96-1.01-7.48-2.11-10.57-3.32l3.22-37.84c1.34.68,3.49,1.54,6.44,2.56,2.95,1.02,6.78,2.36,11.48,3.99,9.39,3.28,19.46,4.91,30.2,4.91,7.51,0,13.69-1.14,18.52-3.43,4.56-2.15,6.84-6.04,6.84-11.69,0-4.57-2.35-8.27-7.05-11.09-2.42-1.34-5.74-2.76-9.96-4.23-4.23-1.48-9.36-2.89-15.4-4.23-6.44-1.48-12.35-3.36-17.72-5.64-5.37-2.28-10.27-5.17-14.7-8.67-8.73-6.85-13.08-17.41-13.08-31.66,0-15.86,6.57-28.16,19.73-36.9,13.15-8.73,29.66-13.1,49.52-13.1,8.86,0,17.92.8,27.18,2.42,4.56.8,8.72,1.61,12.48,2.41,3.75.81,7.18,1.75,10.27,2.82l-3.02,35.83c-5.1-2.68-11.41-4.9-18.92-6.64-7.92-1.61-15.5-2.42-22.75-2.42-8.86,0-15.37,1.07-19.53,3.22-4.16,2.15-6.24,5.5-6.24,10.07,0,3.76,2.28,6.71,6.85,8.86,2.42,1.21,6,2.55,10.77,4.03,4.76,1.48,10.77,3.09,18.02,4.83,15.3,3.9,26.44,9.73,33.42,17.51,6.98,7.78,10.47,17.85,10.47,30.2Z"></path><path class="cls-2" d="M850.05,73.31l.44,53.64s12.85-10.04,26.63-15.42c8.24-3.22,15.08-4.09,19.69-4.64,11.35-1.37,34.97-4.22,54.19,10.04,13.15,9.76,18.22,23.05,20.37,28.69,4.1,10.75,4.42,19.75,4.59,25.88,1.34,49.19,1.03,89.3,1.03,89.3-.15,18.71-.15,45.33-.15,45.33h0c-29.79.63-47.41,1-47.41,1h0,0c-.3-47.06-1.67-73.36-4.43-125.96-.04-.78-.2-3.58-.74-7.23-1.4-9.49-2.64-17.9-8.17-24.13-8-9.02-21.11-9.14-24.52-9.17-14.52-.13-24.22,8.01-26.8,10.24-1.05.9-10.84,9.62-13.48,23.77-.17.93-.3,1.8-.39,2.62-.33,2.89-.26,5.03-.25,5.55,0,0,.23,44.83.23,44.83-16.29,11.56-32.59,23.12-48.89,34.68,0-20.28,0-40.55-.01-60.83v-4.15c0-29.76-.01-59.51-.02-89.27,16.03-11.59,32.05-23.18,48.08-34.76"></path><path class="cls-2" d="M801.97,34.15c15.99-11.38,31.98-22.77,47.97-34.15.04,19.26.08,38.52.11,57.78-16.03,11.43-32.05,22.87-48.08,34.3v-57.93Z"></path></g></g></svg>