<?xml version="1.0" encoding="UTF-8"?>
<svg id="katman_2" xmlns="http://www.w3.org/2000/svg" viewBox="0 0 16.95 25">
  <defs>
    <style>
      .cls-1 {
        fill: #f39100;
      }

      .cls-2 {
        fill: #fff;
      }
    </style>
  </defs>
  <g id="Logonun_Negatif_Kullanımı">
    <g>
      <path class="cls-1" d="M16.95,17.98c-.37,2.22-1.39,4-3.27,5.34-1.55,1.1-3.2,1.67-5.06,1.68-6.14.03-10.57-6.45-7.75-12.09.95-1.9,2.11-3.65,3.31-5.39,1.62-2.36,3.28-4.7,4.43-7.52.68,1.87,1.56,3.47,2.57,4.99.19.28.02.46-.09.68-.85,1.7-1.97,3.22-3.03,4.79-.64.94-1.27,1.88-1.72,2.93-1.22,2.86-.14,5.94,2.56,7.34,2.75,1.42,6.05.51,7.67-2.12.13-.21.25-.42.37-.63Z"/>
      <path class="cls-2" d="M11.94,7.78c.77,1.98,2.06,3.45,3.08,5.08.65,1.05,1.11,2.15.74,3.42-.45,1.51-1.44,2.48-2.96,2.81-1.58.34-2.96-.13-3.96-1.43-.98-1.27-1.11-2.66-.38-4.11.38-.74.83-1.44,1.3-2.12.77-1.12,1.56-2.22,2.18-3.65Z"/>
    </g>
  </g>
</svg>