<svg id="katman_2" xmlns="http://www.w3.org/2000/svg" viewBox="0 0 1243.42 360.33"><defs><style>
      .cls-1, .cls-2 {
        fill: #fff;
      }
      .cls-3, .cls-4 {
        fill: #cca965;
      }
      .cls-2, .cls-4 {
        fill-rule: evenodd;
      }
    </style></defs><g id="Protam_Group"><g><g><path class="cls-1" d="M639.22,78.24c-7.89-2.22-14.8-2.81-20.74-1.75-5.94,1.06-10.91,3.42-14.91,7.09-4,3.67-7.02,8.49-9.08,14.44-2.06,5.95-3.08,12.77-3.08,20.45v54.76h-40.81v-79.64c0-5.57,1.19-11.3,3.58-17.2,2.39-5.9,5.58-11.38,9.58-16.44,4-5.06,8.6-9.35,13.83-12.85,5.22-3.51,10.66-5.59,16.32-6.26,6.88-.67,13.38-1.17,19.49-1.5,2.67-.11,5.33-.19,8-.25,2.67-.05,5.25,0,7.74.17,2.5.17,4.8.42,6.91.75,2.11.33,3.83.78,5.16,1.33l-2,36.9h0Z"></path><path class="cls-1" d="M781.39,107.84c0,20.59-6.29,37.07-18.87,49.42-12.36,12.36-28.88,18.53-49.59,18.53s-37.29-6.18-49.75-18.53c-12.58-12.36-18.87-28.83-18.87-49.42s6.29-37.23,18.87-49.59c6.35-6.35,13.63-11.16,21.87-14.44,8.23-3.28,17.53-4.92,27.88-4.92s19.62,1.64,27.8,4.92c8.18,3.29,15.44,8.1,21.79,14.44,12.58,12.36,18.87,28.88,18.87,49.59h0ZM742.15,108.07c0-12.13-2.51-21.54-7.51-28.21-5.12-6.79-12.36-10.19-21.71-10.19s-16.64,3.4-21.87,10.19c-5.01,6.68-7.51,16.09-7.51,28.21s2.56,21.09,7.68,27.88c5.23,6.9,12.47,10.35,21.71,10.35s16.53-3.45,21.54-10.35c5.12-6.79,7.68-16.08,7.68-27.88h0Z"></path><path class="cls-1" d="M835.73,124.58c0,7.34,1.56,12.78,4.67,16.34,3.22,3.56,7.77,5.34,13.66,5.34,3.55,0,6.77-.35,9.66-1.05,1.33-.35,2.5-.73,3.5-1.14,1-.41,1.89-.79,2.67-1.14l1,29.62c-1,.33-2.44.67-4.33,1-1.89.33-4.16.72-6.83,1.16-5.33.67-11.05,1-17.15,1-15.88,0-27.76-3.88-35.64-11.65-8-7.54-11.99-19.08-11.99-34.61V50.34c0-6.13,1.48-12.09,4.43-17.9,2.95-5.8,6.52-11.04,10.7-15.72,4.18-4.68,8.62-8.53,13.3-11.54,4.68-3.01,8.8-4.74,12.38-5.18l.17,41.92h33.32v29.3h-33.48v53.36h-.01Z"></path><path class="cls-1" d="M968.63,172.71v-21.54c-2.23,2.91-4.45,5.59-6.67,8.05-1.89,2.13-3.92,4.22-6.09,6.29-2.17,2.07-4.2,3.61-6.09,4.61-7.34,4.02-15.4,6.04-24.17,6.04-15.12,0-26.95-3.73-35.51-11.17-8.56-7.34-12.84-16.9-12.84-28.68,0-14.34,5.67-25.35,17.01-33.02,5.67-3.78,12.59-6.69,20.76-8.75,8.17-2.05,17.64-3.03,28.43-2.92l20.34.33c-.44-3.22-1.39-6.34-2.83-9.34-.89-1.67-2.08-3.33-3.58-5-1.5-1.67-3.36-3.28-5.58-4.83-.33-.22-.67-.44-1-.67-.33-.22-.67-.44-1-.67-.44-.22-.89-.47-1.33-.75-.44-.28-.95-.53-1.5-.75-.78-.22-1.56-.44-2.34-.67-.78-.22-1.67-.44-2.67-.67h-1c-.78-.11-1.56-.19-2.34-.25-.78-.05-1.72-.08-2.83-.08-3.78,0-7.53.31-11.25.92-3.73.61-7.53,1.53-11.42,2.75-3.89,1.22-7.56,2.64-11,4.25-3.45,1.61-6.56,3.48-9.34,5.59v-31.96c5.56-3,12.94-5.45,22.16-7.34,4.78-1,9.5-1.78,14.17-2.34,4.67-.55,9.33-.84,14-.84h19.33c6.44,0,12.3,1.2,17.58,3.59,5.27,2.39,9.8,5.59,13.58,9.59,3.78,4,6.66,8.59,8.66,13.76,2,5.17,3,10.49,3,15.93v22.52h0l.17,68.01h-36.79ZM966.54,113.24c-1.33.56-3.51.84-6.51.84-1.56,0-3.31.03-5.26.08-1.95.06-4.09.08-6.43.08-11.24.33-19.43,1.94-24.54,4.82-5.34,3.21-8.01,7.75-8.01,13.62,0,4.54,1.78,8.14,5.34,10.8,3.45,2.66,8.52,3.99,15.19,3.99,9.01,0,16.31-3.32,21.87-9.97,5.57-6.53,8.35-13.57,8.35-21.1v-3.15h0Z"></path><path class="cls-1" d="M1211.64,42.62c5.34,2.45,9.9,5.68,13.69,9.68,3.78,4.01,6.7,8.6,8.76,13.78,2.06,5.17,2.92,16.11,2.92,16.11v91.04h-41.33v-75.96c0-1-.14-2.86-.42-5.59-.28-2.73-1-5.54-2.16-8.43-1.16-2.89-2.94-5.48-5.32-7.76-2.39-2.28-5.74-3.42-10.06-3.42-8.53,0-15.44,3.17-20.7,9.52-5.27,6.35-7.9,16.09-7.9,29.22v62.44h-42.02.17v-75.96c0-1-.14-2.86-.42-5.59-.28-2.73-1-5.54-2.15-8.43-1.16-2.89-2.92-5.48-5.3-7.76-2.38-2.28-5.72-3.42-10.03-3.42s-8.24.78-11.77,2.34c-3.53,1.56-6.61,3.92-9.2,7.09-2.6,3.17-4.62,7.21-6.05,12.11-1.44,4.9-2.15,10.63-2.15,17.2v62.44h-41.33v-91.04s1.14-10.93,3.54-16.11c2.39-5.17,5.59-9.77,9.6-13.78,4.01-4.01,8.6-7.24,13.78-9.68,5.17-2.45,10.6-3.67,16.28-3.84h35.06c5.12.17,9.71.81,13.78,2.09,4.06,1.28,7.62,2.84,10.68,4.68,3.06,1.84,5.65,3.87,7.76,6.09,2.11,2.23,3.78,4.23,5.01,6.01,1.67-2.34,3.89-4.65,6.68-6.93s5.84-4.28,9.18-6.01c3.34-1.73,6.76-3.11,10.27-4.17,3.51-1.06,6.71-1.59,9.6-1.23h23.88c6.46-.35,12.36.87,17.7,3.32h0Z"></path></g><g><path class="cls-3" d="M900.66,234.45l-33.76,81.97c-2.28,5.58-4.55,10.99-6.78,16.23-2.24,5.24-4.98,9.89-8.2,13.96-3.23,4.07-7.2,7.33-11.92,9.78-4.72,2.45-10.74,3.67-18.05,3.67-2.12,0-4.25.06-6.37.17-2.12.11-4.21.13-6.25.06l1.77-18.77c.63-.07,1.28-.13,1.95-.17.67-.04,1.4-.09,2.19-.17,3.85-.38,6.86-1.26,9.03-2.66,2.16-1.4,3.79-3.04,4.9-4.92,1.1-1.89,1.79-3.88,2.07-5.99.27-2.11.42-4.07.42-5.88l-35.99-87.29h34.22l19.83,57.55h.35l18.89-57.55h31.75-.01Z"></path><path class="cls-3" d="M962.87,322.35v-14.33c-1.57,1.98-3.13,3.81-4.69,5.49-1.33,1.45-2.76,2.88-4.28,4.29-1.52,1.41-2.95,2.46-4.28,3.14-5.16,2.74-10.83,4.12-17.01,4.12-10.64,0-18.96-2.54-24.98-7.62-6.02-5-9.03-11.52-9.03-19.56,0-9.78,3.99-17.29,11.96-22.51,3.99-2.58,8.86-4.57,14.6-5.97,5.75-1.4,12.41-2.07,20-1.99l14.31.23c-.31-2.2-.98-4.32-1.99-6.37-.63-1.14-1.47-2.27-2.52-3.41-1.05-1.14-2.37-2.24-3.93-3.3-.28-.19-.57-.36-.85-.55-.25-.15-.64-.38-.89-.53-.2-.11-.4-.22-.61-.34-.31-.19-.66-.36-1.05-.51-.55-.15-1.1-.3-1.64-.45-.55-.15-1.17-.3-1.87-.45h-.7c-.55-.07-1.1-.13-1.64-.17-.55-.04-1.21-.06-1.99-.06-2.66,0-5.3.21-7.92.62-2.62.42-5.3,1.04-8.03,1.88-2.74.83-5.32,1.8-7.74,2.9-2.42,1.1-4.62,2.37-6.57,3.81v-21.28c3.93-2.02,9.15-3.66,15.67-4.93,3.38-.67,6.71-1.19,10.01-1.57,3.3-.38,6.6-.56,9.9-.56h13.66c4.55,0,8.7.8,12.43,2.41,3.73,1.61,6.93,3.76,9.6,6.44,2.67,2.69,4.71,5.77,6.13,9.25,1.41,3.48,2.12,7.04,2.12,10.71v15.14h-.52l.11,46.04h-25.75ZM961.83,282.12c-.94.38-2.47.57-4.58.57-1.1,0-2.33.02-3.7.06-1.37.04-2.88.06-4.53.06-7.91.22-13.67,1.31-17.28,3.25-3.76,2.17-5.64,5.23-5.64,9.18,0,3.06,1.25,5.49,3.76,7.28,2.43,1.79,5.99,2.69,10.69,2.69,6.35,0,11.47-2.24,15.39-6.72,3.92-4.41,5.88-9.15,5.88-14.23v-2.13h0Z"></path><path class="cls-3" d="M1075.88,300.57v21.28c-.87.15-2.06.38-3.59.67-1.53.3-3.44.64-5.71,1.01-2.28.38-4.7.65-7.25.84-2.56.19-5.33.28-8.31.28-16.49,0-29.54-4.2-39.12-12.61-9.66-8.33-14.5-19.78-14.5-34.34v-7.32c0-5.18,1.08-10.08,3.24-14.69,2.16-4.61,5.24-9.02,9.25-13.23,3.77-3.98,7.85-6.66,12.26-8.05,4.4-1.39,8.91-2.08,13.55-2.08h22.98c1.33,0,2.77.13,4.3.39,1.53.26,3.04.6,4.54,1.01,1.49.41,2.86.9,4.12,1.46,1.25.57,2.32,1.11,3.18,1.63l-2.12,20.49c-1.42-.97-3.85-1.91-7.3-2.81-3.3-.97-7.03-1.46-11.2-1.46-8.01,0-14.38,2.25-19.09,6.75-4.79,4.5-7.19,10.51-7.19,18.01,0,7.88,2.43,14.15,7.3,18.8,5.03,4.66,11.67,6.98,19.92,6.98,4.71,0,8.91-.45,12.61-1.35,1.88-.45,3.57-.81,5.07-1.07,1.49-.26,2.51-.47,3.06-.62h0Z"></path><path class="cls-3" d="M1149.56,231.83c4.54,0,8.69.83,12.45,2.49,3.76,1.66,6.97,3.85,9.63,6.56,2.66,2.72,4.72,5.83,6.17,9.33,1.45,3.51,2.18,7.1,2.18,10.77v61.35h-29.3v-51.02c-.09-.67-.4-1.93-1.03-3.77-.63-1.84-1.61-3.73-2.94-5.69-1.33-1.95-3.06-3.69-5.17-5.24-2.11-1.54-4.7-2.31-7.75-2.31s-5.85.52-8.4,1.57c-2.55,1.05-4.74,2.66-6.58,4.84-1.84,2.18-3.27,4.9-4.29,8.16-1.02,3.26-1.53,7.11-1.5,11.54v42.44h-28.77v-99.55c0-2.78.53-5.54,1.58-8.28,1.05-2.74,2.42-5.35,4.09-7.82,1.68-2.47,3.59-4.8,5.73-6.98,2.15-2.18,4.27-4.05,6.37-5.63,2.1-1.57,4.13-2.81,6.08-3.71,1.95-.9,3.58-1.35,4.91-1.35v57.55l.12-.11c1.96-2.56,4.09-4.79,6.4-6.68,2.31-1.88,4.6-3.43,6.87-4.64,2.27-1.21,4.42-2.13,6.46-2.77,2.03-.64,3.76-1,5.17-1.07,3.45-.3,6.05-.38,7.81-.22,1.76.15,3,.22,3.7.22h0Z"></path><path class="cls-3" d="M1218.18,289.9c0,4.96,1.12,8.65,3.35,11.05,2.31,2.41,5.58,3.61,9.81,3.61,2.55,0,4.86-.24,6.94-.71.96-.24,1.79-.49,2.51-.77.72-.28,1.35-.53,1.91-.77l.72,20.03c-.72.22-1.76.45-3.11.67-1.36.22-2.99.49-4.9.79-3.83.45-7.93.67-12.32.67-11.4,0-19.93-2.63-25.59-7.88-5.74-5.1-8.61-12.9-8.61-23.41v-53.45c0-4.14,1.04-8.17,3.12-12.09,2.08-3.92,4.6-7.46,7.55-10.62,2.95-3.16,6.08-5.76,9.38-7.8,3.3-2.04,6.21-3.2,8.73-3.5l.11,28.19h23.43v19.88h-23.02v36.1h0Z"></path></g><path class="cls-4" d="M427.32,83.42c-1.13,14.8-2.26,29.59-3.4,44.39-12.06-14.16-24.12-28.31-36.18-42.47h0c1.32-15.89,2.64-31.78,3.96-47.67,15.66.11,31.32.22,46.98.33,11.26,15.23,22.52,30.45,33.78,45.68"></path><path class="cls-2" d="M452.11,37.46c29.23-1.27,36.99.33,36.99.33,3.63.75,13.2,3.03,13.2,3.03,0,0,5.73,2.07,10.46,5.61,3.8,2.85,7.07,6.72,7.09,6.74.01.01,2.04,2.18,3.37,4.48.8,1.38,1.2,2.68,2.02,5.27.59,1.87,1.26,4.39,1.26,4.39l1.26,6.63c.15,4.48.3,8.96.46,13.45h0c-.24,7.39-.99,13.43-1.66,17.74,0,0-.64,4.05-4.16,20.31h0s-1.32,7.46-4.88,14.7c-1.34,2.73-2.72,4.87-3.57,6.17-1.17,1.8-2.45,3.75-4.52,6.06-1,1.12-1.86,1.95-2.58,2.63-4.73,4.48-7.8,7.38-12.52,10.39-.32.2-7.03,4.38-11.54,5.61-2.54.7-7.37,1.68-7.37,1.68,0,0-46.74-.33-46.74-.33,0,0-.35-4.62-.24-7.86.13-3.64.87-6.35,1.55-8.75,1.93-6.88,3.9-13.9,10.46-19.53,4.69-4.02,9.87-5.76,12.13-6.4,2.73-.77,2.81-.4,7.85-1.34,6.91-1.3,11-2.08,15.1-4.49,4.64-2.73,7.13-6.29,8.21-7.86,4.57-6.68,4.69-13.36,4.76-17.62.15-8.9-2.83-15.32-3.57-16.84-1.25-2.56-2.12-3.56-7.49-10.33-8.87-11.17-13.31-16.76-17.36-22.45-3-4.22-7.97-11.45-7.97-11.45h0Z"></path><path class="cls-2" d="M385.82,99.2h0s-19.8,131.86-19.8,131.87h0s13.97,4.79,24.62.22c4.19-1.8,7.59-4.93,8.44-5.72,1.85-1.73,3.06-3.28,5.47-6.4,2.36-3.05,3.8-4.9,5.12-7.3,2.04-3.7,2.78-6.9,3.45-9.99,2.26-10.54,3.42-19.66,3.92-23.68.93-7.39,1.39-11.09,1.9-16.28.89-8.99,1.66-19.31,1.66-19.31h0s-7.88-10.47-15.67-20.26c-9.53-11.97-19.12-23.16-19.12-23.17h0Z"></path><g><path class="cls-4" d="M.66,126.04s31.81,83.61,60.69,78.15c0,0-31.33-33.34-29.85-62.26,1.47-28.92,27.91-62.51,27.91-62.51,0,0,85.15-121.91,222.18-63.56,0,0,33.77,18.24,21.53,70.34,0,0-20.56,80.75-121.37,123.99l36.21-95.86s-37.2-48.97-54.32-28.14c0,0,16.15,6.77,4.41,39.07l-53.84,153.16s-6.61,29.44,4.41,33.09c0,0-128.95-30.21-117.93-185.46"></path><path class="cls-2" d="M171.31,245.03s3.42-4.04,11.5-3.38c0,0,98.13,14.85,159.3-124.77,0,0,22.03,96.38-56.77,162.54-78.79,66.17-134.58,36.47-134.58,36.47,0,0-1.84-2.61,1.84-12.37l18.71-58.49h0Z"></path></g></g></g></svg>