<?xml version="1.0" encoding="UTF-8"?>
<svg id="Protam_Yacht" xmlns="http://www.w3.org/2000/svg" viewBox="0 0 1080 1080">
  <defs>
    <style>
      .cls-1 {
        fill: #fff;
      }

      .cls-2 {
        fill: #1c2746;
      }

      .cls-2, .cls-3 {
        fill-rule: evenodd;
      }

      .cls-3 {
        fill: #cca965;
      }
    </style>
  </defs>
  <circle class="cls-1" cx="540" cy="540" r="535"/>
  <g>
    <path class="cls-3" d="M87.24,447.09s83.85,220.38,159.95,205.97c0,0-82.57-87.88-78.69-164.09,3.88-76.21,73.55-164.76,73.55-164.76,0,0,224.43-321.32,585.6-167.53,0,0,89.01,48.07,56.76,185.38,0,0-54.18,212.84-319.9,326.81l95.45-252.66s-98.04-129.07-143.18-74.15c0,0,42.57,17.85,11.62,102.98l-141.93,403.69s-17.42,77.59,11.61,87.2c0,0-339.88-79.63-310.85-488.84"/>
    <path class="cls-2" d="M536.87,760.72s9.02-10.65,30.3-8.93c0,0,258.64,39.15,419.88-328.85,0,0,58.05,254.03-149.62,428.42-207.67,174.4-354.72,96.12-354.72,96.12,0,0-4.84-6.87,4.84-32.62l49.33-154.15Z"/>
  </g>
</svg>