<svg id="katman_2" xmlns="http://www.w3.org/2000/svg" viewBox="0 0 1373.85 353.03"><defs><style>
      .cls-1 {
        fill: #585656;
      }
      .cls-2 {
        stroke: #fff;
      }
      .cls-2, .cls-3 {
        fill: #fff;
      }
      .cls-2, .cls-4 {
        stroke-miterlimit: 10;
      }
      .cls-4 {
        fill: none;
        stroke: #f39104;
      }
      .cls-5 {
        fill: #f39104;
      }
    </style></defs><g id="Protam_Group"><g><path class="cls-3" d="M1373.14,196.81c-4.84,5.07-23.3,17.8-26.76,20.27-.67.48-1.82.68-1.67,1.92,0,0-.06-.07-.06-.07-1.07-.23-1.66.26-1.91,1.27l.02-.02c-.99-.11-1.65.29-1.91,1.27l.02-.02c-.47-.1-.77.03-.72.57l.03-.03c-.65-.16-1.1,0-1.23.72l.03-.03c-.43-.05-.75.05-.72.58l.04-.03c-.65-.16-1.1.02-1.24.73l.04-.03c-.42-.01-.72.11-.71.61l.04-.04s-.03.03-.04.04c-.32.29-.75.57-1.33.76-.72.35-1.44.7-2.37,1.15-.44-5.5-1.03-10.73-1.24-15.97-.35-8.7-.19-17.42-.73-26.1-.66-10.44-.74-20.89-1.24-31.32-.47-9.92-.71-19.85-1.22-29.77-.38-7.54-1.96-14.88-8.23-20.25-2.19-1.87-4.59-3.23-7.33-3.28-4.72-.08-9.43-.17-14.08,1.44-7.56,2.62-12.59,7.88-15.42,14.94-3.06,7.63-4.77,15.6-4.63,24.06.34,20.06.07,40.12.16,60.18.01,2.29-.46,2.94-2.86,2.92-12.87-.14-25.73-.12-38.6,0-2.22.02-2.71-.57-2.7-2.74.09-24.35.11-48.69.02-73.04-.02-6.54-.59-13.06-4.23-18.84-3.38-5.38-7.76-8.93-14.58-8.97-5.77-.03-11.23.56-16.24,3.73-8.71,5.51-12.85,13.71-14.42,23.56-.86,5.37-.92,10.77-.92,16.18,0,19.02-.05,38.03.06,57.05.01,2.44-.6,3.1-3.07,3.08-12.76-.13-25.52-.12-38.29-.01-2.3.02-3.15-.36-3.14-2.96.11-30.2-.07-60.39.15-90.59.07-10.25,4.24-19.17,10.74-27.11,7.21-8.81,16.46-14.06,27.47-16.37,2.62-.55,5.35-.81,8.03-.83,12.55-.08,25.11-.15,37.66,0,7.04.09,13.81,1.54,20.46,4.15,7.11,2.79,12.62,7.33,17.28,13.08,1.33,1.64,2,1.41,3.2.03,7.8-8.97,18.04-13.66,29.32-16.44,3.94-.97,7.99-.92,12.04-.88,6.49.06,12.97-.07,19.46.03,17.11.26,30.92,6.48,40.75,21.2,4.87,7.29,6.95,15.07,6.99,23.42.12,28.94-.08,57.87-.16,86.81"></path><path class="cls-3" d="M303.06,128.45c5.35-8.54,9.93-16.64,15.29-24.2,6.17-8.71,11.39-18.01,17.37-26.83,1.63-2.4,3.83-4.41,4.97-7.17.4-.97,1.39-1.13,2.39-1.12,16.29,0,32.59,0,49.37,0-1.75,3.53-4.65,5.74-6.52,8.72-3.54,5.67-7.28,11.27-11.47,16.48-6.77,8.42-12.35,17.68-18.93,26.19-2.81,3.62-5.4,7.39-8.19,11.01-1.15,1.48-1.24,2.48-.09,4.06,8.09,11.12,15.81,22.51,24.14,33.44,5.79,7.59,10.89,15.64,16.62,23.24,2.67,3.55,5.57,6.92,8.25,11.07h-3.41c-15.8,0-31.6-.26-47.39.16-4.71.12-7.03-1.88-8.99-5.39-5.07-9.1-9.64-18.52-15.33-27.22-5.24-8.01-9.3-16.67-14.5-24.67-1.13-1.75-1.91-3.73-3.43-5.51-.05.85-.13,1.7-.13,2.54,0,19.02-.05,38.03.05,57.05.01,2.41-.55,3.12-3.03,3.1-12.45-.13-24.9-.12-37.35,0-2.24.02-2.74-.66-2.74-2.8.06-50.47.04-100.93.05-151.4,0-9.73,4.11-17.78,9.76-25.47,6.63-9.01,14.77-16.09,24.49-21.42,1.82-1,3.96-1.44,5.98-2.05,2.07-.63,2.85-.04,2.83,2.35-.11,16.09-.06,32.18-.06,48.27v77.59Z"></path><path class="cls-3" d="M545.29,154.59c0,15.15-.09,30.31.08,45.46.03,2.9-.85,3.37-3.49,3.34-12.45-.14-24.9-.14-37.35,0-2.65.03-3.5-.47-3.49-3.35.14-24.56.08-49.12.08-73.67,0-4.61-.42-9.23-2.01-13.53-3.87-10.48-12.2-14.91-23.32-12.84-13.83,2.57-22.09,13.67-24,26.88-.81,5.58-1.1,11.18-1.1,16.8,0,18.92-.04,37.83.05,56.74.01,2.22-.35,3.01-2.83,2.98-12.87-.15-25.74-.13-38.61-.01-2.22.02-2.72-.57-2.72-2.75.08-29.99-.22-59.99.19-89.97.16-12.02,5.02-22.57,13.74-31.16,5.52-5.43,11.79-9.58,19.2-11.87,4.47-1.38,9.07-2.07,13.78-2.06,15.17.02,30.34-.04,45.51.02,11.04.05,20.88,3.26,29.75,10.18,9.64,7.52,14.44,17.29,16.02,29.06,1.07,8,.33,16.03.48,24.05.15,8.57.03,17.14.03,25.71"></path><path class="cls-3" d="M858.99,153.36c0,15.57-.06,31.14.06,46.71.02,2.51-.45,3.37-3.18,3.33-12.76-.16-25.53-.14-38.29-.01-2.32.02-2.92-.5-2.92-2.88.1-24.77.16-49.53-.01-74.3-.04-5.94-.45-11.95-3.69-17.36-4.39-7.33-11.4-10.65-21.2-8.84-13.79,2.54-21.06,11.7-23.97,24.83-.87,3.93-1.34,7.91-1.32,11.98.07,21.21,0,42.43.09,63.64,0,2.27-.43,2.96-2.86,2.94-12.87-.14-25.74-.13-38.6,0-2.26.02-2.7-.65-2.7-2.78.07-30.62-.08-61.24.13-91.85.06-8.53,3.7-16.14,8.35-23.18,5.16-7.82,12.62-12.82,20.98-16.68,4.65-2.15,9.6-3.15,14.59-3.19,17.36-.14,34.73-.14,52.09.12,9.46.15,17.84,3.73,25.35,9.44,11.74,8.93,16.82,21.11,17.05,35.46.23,14.21.05,28.42.05,42.64"></path><path class="cls-3" d="M559.85,136.94c-.13-8.9.31-17.28,3.42-25.15,3.75-9.49,8.14-18.73,15.78-25.85,10.69-9.97,23.02-16.66,37.71-18.87,7.87-1.19,15.71-1.83,23.63-1.19,17.04,1.38,32.07,7.13,44.96,18.88,9.22,8.41,14.34,18.73,18.18,30.17,2.57,7.65,3.22,15.5,3.04,23.4-.4,17.27-5.61,33.06-17.26,45.96-9.66,10.69-22.13,17.16-36.29,20.2-9.8,2.1-19.79,2.48-29.66,1.7-7.89-.63-15.68-2.53-23.21-5.52-8.67-3.45-15.91-8.8-22.4-15.15-5.4-5.28-8.99-11.93-12.11-18.86-2.2-4.89-4.01-9.87-4.92-15.08-.86-4.97-1.03-10.05-.87-14.62M602.2,136.79c.14,3.55.18,7.53,1.01,11.42,2.1,9.95,5.72,18.84,15.49,23.98,13.88,7.3,35.26,3.84,42.17-15.34,4.04-11.21,4.15-22.67,1.99-34.23-3.29-17.6-15.56-26.81-32.96-25.3-10.2.89-18.2,5.55-22.89,15.06-3.74,7.58-4.65,15.71-4.81,24.41"></path><path class="cls-3" d="M873.55,136.25c-.56-8.91.56-17.75,3.66-25.94,2.32-6.13,5.37-12.25,9.57-17.51,6.6-8.27,14.53-15.05,24.07-19.67,6.61-3.2,13.63-5.32,20.95-6.41,14.98-2.22,29.73-1.43,44.04,3.69,8.5,3.04,15.92,7.93,22.74,13.95,9.44,8.34,14.71,18.8,18.49,30.61,4.12,12.87,4.26,25.82,1.43,38.56-2.68,12.06-7.76,23.55-16.94,32.37-11.02,10.58-24.13,17.09-39.46,19.31-8.28,1.2-16.56,1.49-24.79.98-7.19-.44-14.24-2.33-21.17-4.69-10.28-3.5-18.46-9.89-25.93-17.35-4.42-4.41-7.32-9.96-10.15-15.48-2.39-4.65-3.88-9.54-5.1-14.64-1.42-5.93-.89-11.89-1.41-17.78M977.9,135.24c.18-2.03-.15-5.16-.62-8.25-1.47-9.63-4.16-18.54-12.82-24.62-16.1-11.3-38.97-4.54-45.42,13.94-4.46,12.77-4.44,25.86-.38,38.74,2.44,7.75,6.91,14.05,14.7,17.7,13.18,6.18,32.27,2.95,39.73-12.71,3.59-7.54,4.72-15.48,4.82-24.8"></path><path class="cls-3" d="M201.73,148.36c-13.6,0-27.2.06-40.79-.06-2.48-.02-2.93.65-2.3,2.9,4.18,14.98,13.81,22.92,29.2,25.07,17.34,2.42,33.58-1.72,49.41-8.19,2.43-1,2.99-.6,2.96,1.95-.1,8.77-.08,17.55,0,26.33.02,1.81-.39,2.71-2.3,3.31-8.14,2.57-16.41,4.39-24.89,5.5-9.72,1.27-19.47,1.46-29.21,1.07-5.42-.22-10.85-1.46-16.18-2.66-8.69-1.95-16.48-5.95-23.79-11.02-5.04-3.49-8.91-7.99-12.72-12.7-6.24-7.71-9.4-16.73-11.22-26.17-1.08-5.57-1.63-11.32-1.39-17.12.27-6.46-.5-13,.11-19.41.65-6.92,2.65-13.65,5.94-19.9,3.29-6.26,7.48-11.82,12.13-17.15,6.22-7.13,13.82-11.72,22.94-13.9,1.71-.41,3.52-.58,5.28-.58,14.22.02,28.45-.17,42.66.27,8.95.28,16.52,4.37,23.29,10.28,10.77,9.4,14.62,21.51,14.76,35.24.11,11.17.07,22.35.28,33.52.05,2.65-.47,3.54-3.36,3.5-13.6-.18-27.2-.08-40.79-.08M158.34,122.2c.22.06.52.21.82.21,17.57.08,35.14.13,52.7.25,1.47.01,1.38-.79,1.43-1.78.63-12.65-6.88-23.04-19.08-25.78-9.42-2.11-18.44-1.17-25.64,6.04-5.76,5.76-9.72,12.6-10.23,21.06"></path><path class="cls-3" d="M1031.63,159.95c0-12.64.03-25.28,0-37.92-.02-5.87.36-11.86,3.03-17.01,3.78-7.3,7.41-14.74,13.28-20.87,5.36-5.6,11.3-10.21,18.16-13.69,3.88-1.97,8.17-2.65,12.42-3.19,10.08-1.28,20.24-1.78,30.38-1.77,5.84,0,11.78.22,17.57,1.6,1.66.39,2.27.99,2.19,2.67-.49,10.67-.77,21.35-1.92,31.97-.48,4.46-.6,4.38-4.97,3.39-10.47-2.37-20.55-2.4-30.03,3.86-8.42,5.56-12.39,13.66-14.58,23.02-1.09,4.66-1.37,9.39-1.37,14.16.02,17.97-.04,35.93.07,53.9.01,2.48-.41,3.37-3.16,3.34-12.65-.16-25.31-.17-37.96,0-2.78.04-3.18-.88-3.16-3.35.12-13.37.06-26.74.06-40.11"></path><path class="cls-5" d="M760.93,353.03h-.08v-92.97h18.01v10.36c.66-.89,1.44-1.78,2.34-2.67.9-.89,1.84-1.73,2.8-2.51.96-.78,1.92-1.49,2.88-2.12.96-.63,1.85-1.15,2.67-1.57,3.84-1.89,8.03-2.83,12.58-2.83,9.26,0,16.53,3.01,21.79,9.03,5.21,5.92,7.81,13.98,7.81,24.18,0,9.42-2.6,16.96-7.81,22.61-2.63,2.93-5.66,5.05-9.09,6.36-3.43,1.31-7.33,2.04-11.72,2.2-.77.05-1.51.06-2.22.04-.71-.03-1.43-.09-2.14-.2h-.41l-1.23-.24c-.11,0-.19-.01-.25-.04-.06-.03-.14-.04-.25-.04-.77-.21-1.54-.43-2.3-.67-.77-.24-1.56-.54-2.38-.9-.99-.42-1.99-.97-3-1.65-1.02-.68-2.01-1.44-3-2.28-.16-.1-.34-.25-.53-.43-.19-.18-.37-.35-.53-.51-.22-.16-.43-.33-.62-.51-.19-.18-.4-.38-.62-.59-.16-.16-.33-.33-.49-.51s-.33-.38-.49-.59c-.22-.26-.44-.51-.66-.75-.22-.24-.44-.48-.66-.75-.06,3.04-.08,5.78-.08,8.24v8.87c0,1.88-.37,3.78-1.11,5.69s-1.71,3.73-2.92,5.46c-1.21,1.73-2.55,3.34-4.03,4.83-1.48,1.49-2.97,2.79-4.48,3.89-1.51,1.1-2.95,1.96-4.32,2.59-1.37.63-2.52.94-3.45.94ZM785.59,278.28c-2.85,3.14-4.28,7.15-4.28,12.01,0,2.93.36,5.5,1.07,7.69.66,1.83,1.65,3.59,2.96,5.26,2.52,3.35,6.11,5.03,10.77,5.03s7.97-1.52,10.61-4.56c2.63-3.04,3.95-7.09,3.95-12.17,0-5.5-1.29-9.81-3.86-12.95-2.58-3.3-6.11-4.95-10.61-4.95-4.17,0-7.7,1.54-10.61,4.63Z"></path><path class="cls-5" d="M880.72,276.79c-3.89-1.05-7.3-1.32-10.24-.83-2.93.5-5.38,1.61-7.36,3.34-1.97,1.73-3.47,3.99-4.48,6.79-1.01,2.8-1.52,6.01-1.52,9.62v25.75h-20.14v-37.45c0-2.62.59-5.31,1.77-8.09,1.18-2.77,2.75-5.35,4.73-7.73,1.97-2.38,4.25-4.4,6.82-6.05,2.58-1.65,5.26-2.63,8.06-2.95,3.4-.31,6.6-.55,9.62-.71,1.32-.05,2.63-.09,3.95-.12,1.32-.03,2.59,0,3.82.08,1.23.08,2.37.2,3.41.35,1.04.16,1.89.37,2.55.63l-.99,17.35Z"></path><path class="cls-5" d="M950.6,290.85c0,9.69-3.1,17.43-9.29,23.24-6.08,5.81-14.22,8.72-24.42,8.72s-18.36-2.91-24.5-8.72c-6.19-5.81-9.29-13.56-9.29-23.24s3.1-17.51,9.29-23.32c3.12-2.98,6.71-5.25,10.77-6.79,4.06-1.54,8.63-2.32,13.73-2.32s9.66.77,13.69,2.32c4.03,1.54,7.6,3.81,10.73,6.79,6.19,5.81,9.29,13.58,9.29,23.32ZM931.28,290.85c0-5.7-1.23-10.13-3.7-13.27-2.52-3.19-6.08-4.79-10.69-4.79s-8.19,1.6-10.77,4.79c-2.47,3.14-3.7,7.57-3.7,13.27s1.26,9.92,3.78,13.11c2.58,3.25,6.14,4.87,10.69,4.87s8.14-1.62,10.61-4.87c2.52-3.19,3.78-7.56,3.78-13.11Z"></path><path class="cls-5" d="M1026.57,228.5h.08v92.97h-18v-10.29c-.66.89-1.43,1.77-2.3,2.63-.88.86-1.81,1.69-2.8,2.47-.99.79-1.96,1.51-2.92,2.16-.96.66-1.85,1.17-2.67,1.53-3.89,1.88-8.09,2.83-12.58,2.83-9.26,0-16.53-3.01-21.79-9.03-5.21-6.02-7.81-14.08-7.81-24.18,0-9.42,2.6-16.96,7.81-22.61,2.63-2.93,5.66-5.04,9.08-6.32,3.43-1.28,7.33-2.03,11.72-2.24.77-.05,1.51-.07,2.22-.04.71.03,1.43.09,2.14.2h.08c.16,0,.27.03.33.08.33,0,.77.05,1.32.16.05,0,.11.01.16.04.05.03.14.04.25.04.77.21,1.53.43,2.3.67.77.23,1.56.54,2.38.9,2.03,1,4.03,2.3,6,3.93.16.11.34.25.53.43.19.18.37.35.53.51.22.16.42.33.62.51.19.18.4.38.62.59.16.16.33.34.49.55.16.21.33.39.49.55.27.26.51.51.7.75.19.23.42.48.7.75v-17.12c0-1.94.37-3.85,1.11-5.73.74-1.89,1.71-3.69,2.92-5.42,1.21-1.73,2.55-3.34,4.03-4.83,1.48-1.49,2.97-2.79,4.48-3.89,1.51-1.1,2.95-1.96,4.32-2.59,1.37-.63,2.52-.94,3.45-.94ZM1001.9,303.25c2.85-3.14,4.28-7.12,4.28-11.93,0-1.41-.08-2.77-.25-4.08-.16-1.31-.44-2.54-.82-3.69-.27-.89-.67-1.77-1.19-2.63-.52-.86-1.08-1.74-1.69-2.63-2.63-3.35-6.25-5.02-10.85-5.02s-7.92,1.52-10.61,4.55c-2.63,3.09-3.95,7.14-3.95,12.17,0,5.34,1.29,9.69,3.86,13.03,2.58,3.24,6.11,4.87,10.61,4.87s7.81-1.54,10.61-4.63Z"></path><path class="cls-5" d="M1052.96,259.75l.16,35.65c0,.47.05,1.35.16,2.63.11,1.28.45,2.62,1.03,4,.58,1.39,1.45,2.62,2.63,3.69,1.18,1.07,2.84,1.61,4.97,1.61s4.1-.37,5.88-1.1c1.78-.73,3.32-1.86,4.6-3.38,1.29-1.52,2.29-3.43,3-5.73.71-2.3,1.07-5,1.07-8.09v-29.29h19.57v42.71c0,2.62-.55,5.14-1.65,7.58-1.1,2.43-2.59,4.59-4.48,6.48-1.89,1.88-4.08,3.4-6.58,4.55-2.5,1.15-5.14,1.73-7.93,1.73h-21.54c-3.23,0-6.1-.58-8.59-1.73-2.5-1.15-4.62-2.67-6.37-4.55-1.76-1.89-3.08-4.04-3.99-6.48-.9-2.43-1.36-4.96-1.36-7.58l-.16-42.71h19.57Z"></path><path class="cls-5" d="M1158.36,306v14.84c-.6.11-1.44.26-2.51.47-1.07.21-2.4.44-3.99.71-1.59.26-3.28.46-5.06.59-1.78.13-3.71.2-5.8.2-11.51,0-20.61-2.93-27.3-8.79-6.74-5.81-10.11-13.79-10.11-23.95v-5.1c0-3.61.75-7.03,2.26-10.25,1.51-3.22,3.66-6.29,6.45-9.23,2.63-2.77,5.48-4.65,8.55-5.61,3.07-.97,6.22-1.45,9.46-1.45h16.03c.93,0,1.93.09,3,.28,1.07.18,2.12.42,3.16.71,1.04.29,2,.63,2.88,1.02.88.39,1.62.77,2.22,1.14l-1.48,14.29c-.99-.68-2.69-1.33-5.1-1.96-2.3-.68-4.91-1.02-7.81-1.02-5.59,0-10.03,1.57-13.32,4.71-3.34,3.14-5.02,7.33-5.02,12.56,0,5.5,1.7,9.87,5.1,13.11,3.51,3.25,8.14,4.87,13.89,4.87,3.29,0,6.22-.31,8.8-.94,1.32-.31,2.49-.56,3.53-.75,1.04-.18,1.75-.33,2.14-.43Z"></path><path class="cls-5" d="M1185.57,298.68c0,3.46.77,6.03,2.3,7.71,1.59,1.68,3.84,2.52,6.74,2.52,1.75,0,3.34-.16,4.77-.49.66-.16,1.23-.34,1.73-.54.49-.19.93-.37,1.32-.54l.49,13.98c-.49.16-1.21.31-2.14.47-.93.16-2.06.34-3.37.55-2.63.31-5.45.47-8.47.47-7.84,0-13.7-1.83-17.59-5.5-3.95-3.56-5.92-9-5.92-16.33v-37.3c0-2.88.73-5.68,2.18-8.4,1.45-2.72,3.21-5.18,5.26-7.38,2.06-2.2,4.23-4,6.54-5.42,2.3-1.41,4.33-2.22,6.08-2.43l.08,19.71h16.44v13.74h-16.44v25.18Z"></path><path class="cls-5" d="M1209.74,243.66h19.57v10.28h-19.57v-10.28ZM1209.74,260.07h19.49v61.4h.16-19.65v-61.4Z"></path><path class="cls-5" d="M1303.3,290.85c0,9.69-3.1,17.43-9.29,23.24-6.08,5.81-14.22,8.72-24.42,8.72s-18.36-2.91-24.5-8.72c-6.19-5.81-9.29-13.56-9.29-23.24s3.1-17.51,9.29-23.32c3.12-2.98,6.71-5.25,10.77-6.79,4.06-1.54,8.63-2.32,13.73-2.32s9.66.77,13.69,2.32c4.03,1.54,7.6,3.81,10.73,6.79,6.19,5.81,9.29,13.58,9.29,23.32ZM1283.98,290.85c0-5.7-1.23-10.13-3.7-13.27-2.52-3.19-6.08-4.79-10.69-4.79s-8.19,1.6-10.77,4.79c-2.47,3.14-3.7,7.57-3.7,13.27s1.26,9.92,3.78,13.11c2.58,3.25,6.14,4.87,10.69,4.87s8.14-1.62,10.61-4.87c2.52-3.19,3.78-7.56,3.78-13.11Z"></path><path class="cls-5" d="M1353.37,321.47v-35.73c0-.47-.06-1.35-.16-2.63-.11-1.28-.45-2.6-1.03-3.97-.58-1.36-1.45-2.58-2.63-3.65-1.18-1.07-2.84-1.61-4.97-1.61s-4.08.37-5.84,1.1c-1.75.73-3.28,1.84-4.56,3.34-1.29,1.49-2.29,3.39-3,5.69-.71,2.3-1.07,5-1.07,8.09v29.37h-20.14v-42.79c0-2.57.59-5.06,1.77-7.5,1.18-2.43,2.74-4.59,4.69-6.48,1.94-1.88,4.19-3.4,6.74-4.55,2.55-1.15,5.22-1.73,8.02-1.73h21.46c3.18,0,6.08.58,8.72,1.73,2.63,1.15,4.86,2.67,6.7,4.55,1.84,1.88,3.26,4.04,4.28,6.48,1.01,2.43,1.52,4.93,1.52,7.5v42.79h-20.47Z"></path><path class="cls-1" d="M1332.68,226.45c29.9-22.98,39.35-29.9,39.56-29.63.09.11-1.5,1.6-4.69,4.57-1.91,1.78-3.38,3.08-5.4,4.87-4.45,3.94-6.67,5.93-6.89,6.1-5.5,4-11,8.01-16.5,12.01l-6.12,4.61.03-2.53Z"></path><path class="cls-5" d="M.56,24.93c11.15-.02,22.3-.04,33.44-.06l.04,42.3c10.44.04,20.89.08,31.33.12C43.75,91.97,22.13,116.65.5,141.34c.02-38.8.04-77.61.06-116.41"></path><path class="cls-4" d="M.56,24.93c11.15-.02,22.3-.04,33.44-.06l.04,42.3c10.44.04,20.89.08,31.33.12C43.75,91.97,22.13,116.65.5,141.34c.02-38.8.04-77.61.06-116.41Z"></path><path class="cls-1" d="M55.24,172.16c-2.24-.6-5.05-1.62-8.03-3.43-1.63-.99-3.02-2.03-4.2-3.03-.99-.96-2.36-2.5-3.48-4.74-1.15-2.29-1.49-4.22-2.05-7.38-.59-3.32-.72-5.94-.83-8.3-.12-2.69-.09-4.72-.06-6.32.06-2.89.11-5.51.54-8.97.54-4.3,1.44-8.05,1.45-8.05,0,0,0,.02,0,.03,0,0,.51-3.77,1.55-11.34-.64.77-1.27,1.55-1.91,2.32-12.23,14.83-24.57,29.33-37.02,43.49,0,.01-.08,2.62-.08,4.84,0,1.15,0,2.91.16,5.15.09,1.35.24,3.02.51,4.93.16,1.65.32,3.29.48,4.94.52,2.85,1.17,5.19,1.73,6.91.79,2.47,1.39,4.32,2.69,6.58,1.18,2.05,2.46,3.59,3.14,4.39.86,1.03,1.65,1.85,2.26,2.44.66.65,1.53,1.45,2.6,2.31.82.65,2.37,1.87,4.5,2.96,2.38,1.23,4.35,1.71,6.08,2.14,2.52.62,5.51,1.05,5.52,1.05,0,0,60.77,1.24,64.75,1.32.45-12.64.91-25.29,1.36-37.93-2.17.62-4.9,1.32-8.08,1.96-.68.14-5.2,1.04-10.67,1.58-9.33.93-18.07.5-22.9.13"></path><path class="cls-2" d="M55.24,172.16c-2.24-.6-5.05-1.62-8.03-3.43-1.63-.99-3.02-2.03-4.2-3.03-.99-.96-2.36-2.5-3.48-4.74-1.15-2.29-1.49-4.22-2.05-7.38-.59-3.32-.72-5.94-.83-8.3-.12-2.69-.09-4.72-.06-6.32.06-2.89.11-5.51.54-8.97.54-4.3,1.44-8.05,1.45-8.05,0,0,0,.02,0,.03,0,0,.51-3.77,1.55-11.34-.64.77-1.27,1.55-1.91,2.32-12.23,14.83-24.57,29.33-37.02,43.49,0,.01-.08,2.62-.08,4.84,0,1.15,0,2.91.16,5.15.09,1.35.24,3.02.51,4.93.16,1.65.32,3.29.48,4.94.52,2.85,1.17,5.19,1.73,6.91.79,2.47,1.39,4.32,2.69,6.58,1.18,2.05,2.46,3.59,3.14,4.39.86,1.03,1.65,1.85,2.26,2.44.66.65,1.53,1.45,2.6,2.31.82.65,2.37,1.87,4.5,2.96,2.38,1.23,4.35,1.71,6.08,2.14,2.52.62,5.51,1.05,5.52,1.05,0,0,60.77,1.24,64.75,1.32.45-12.64.91-25.29,1.36-37.93-2.17.62-4.9,1.32-8.08,1.96-.68.14-5.2,1.04-10.67,1.58-9.33.93-18.07.5-22.9.13Z"></path><path class="cls-1" d="M78.73,66.23c-7.76,9.18-15.53,18.36-23.29,27.54h47.73c-.04-9.18-.07-18.37-.11-27.55-8.11,0-16.22,0-24.32.01"></path><path class="cls-2" d="M78.73,66.23c-7.76,9.18-15.53,18.36-23.29,27.54h47.73c-.04-9.18-.07-18.37-.11-27.55-8.11,0-16.22,0-24.32.01Z"></path></g></g></svg>